<?xml version="1.0" encoding="utf-8"?>
<!-- Generator: Adobe Illustrator 22.1.0, SVG Export Plug-In . SVG Version: 6.00 Build 0)  -->
<svg version="1.1" id="Layer_1" xmlns="http://www.w3.org/2000/svg" xmlns:xlink="http://www.w3.org/1999/xlink" x="0px" y="0px"
	 viewBox="0 0 50 50" style="enable-background:new 0 0 50 50;" xml:space="preserve">
<style type="text/css">
	.st0{fill:url(#SVGID_1_);}
	.st1{fill:url(#SVGID_2_);}
</style>
<g>
	<linearGradient id="SVGID_1_" gradientUnits="userSpaceOnUse" x1="6.0908" y1="28.7591" x2="26.2002" y2="8.3665">
		<stop  offset="0" style="stop-color:#EC758E"/>
		<stop  offset="1" style="stop-color:#DC002E"/>
	</linearGradient>
	<path class="st0" d="M31.1,18.5c0-0.1,0-0.3,0-0.4V1.4c0-0.4-0.3-0.7-0.7-0.7h-11c-0.4,0-0.7,0.3-0.7,0.7v16.4
		c0,0.4-0.3,0.7-0.7,0.7H1.7c-0.4,0-0.7,0.3-0.7,0.7v11c0,0.4,0.3,0.7,0.7,0.7h16.7c0.2,0,0.4,0,0.5,0
		C19.1,24.1,24.4,18.7,31.1,18.5z"/>
	<linearGradient id="SVGID_2_" gradientUnits="userSpaceOnUse" x1="43.755" y1="21.6595" x2="20.5301" y2="43.185">
		<stop  offset="0" style="stop-color:#B1B3B3"/>
		<stop  offset="1" style="stop-color:#3D3F3F"/>
	</linearGradient>
	<path class="st1" d="M48.3,18.5H31.6c-0.2,0-0.4,0-0.5,0c-0.2,6.7-5.5,12-12.2,12.3c0,0.1,0,0.3,0,0.4v16.7c0,0.4,0.3,0.7,0.7,0.7
		h11c0.4,0,0.7-0.3,0.7-0.7V31.5c0-0.4,0.3-0.7,0.7-0.7h16.4c0.4,0,0.7-0.3,0.7-0.7v-11C49,18.8,48.7,18.5,48.3,18.5z"/>
	<path d="M31.1,18.5c-6.6,0.3-12,5.6-12.2,12.3C25.6,30.5,30.9,25.1,31.1,18.5z"/>
</g>
</svg>
